<?xml version="1.0" encoding="UTF-8" standalone="no"?>
<!DOCTYPE svg PUBLIC "-//W3C//DTD SVG 1.1//EN" "http://www.w3.org/Graphics/SVG/1.1/DTD/svg11.dtd">
<svg version="1.1" xmlns="http://www.w3.org/2000/svg" xmlns:xlink="http://www.w3.org/1999/xlink" preserveAspectRatio="xMidYMid meet" viewBox="-1 -0.96875 13 13" width="9" height="9"><defs><path d="M9 0.03C9 0.03 9 0.03 9 0.03C9 5.43 9 8.43 9 9.03C9 9.03 9 9.03 9 9.03C3.6 9.03 0.6 9.03 0 9.03C0 9.03 0 9.03 0 9.03C0 3.63 0 0.63 0 0.03C0 0.03 0 0.03 0 0.03C5.4 0.03 8.4 0.03 9 0.03Z" id="ciuTReUiW"></path><path d="M5.21 1.82C4.82 1.43 4.18 1.43 3.79 1.82C3.4 2.21 3.4 2.85 3.79 3.24C4.18 3.63 4.82 3.63 5.21 3.24C5.6 2.85 5.6 2.21 5.21 1.82Z" id="ajAszxags"></path><path d="M7.21 3.82C6.82 3.43 6.18 3.43 5.79 3.82C5.4 4.21 5.4 4.85 5.79 5.24C6.18 5.63 6.82 5.63 7.21 5.24C7.6 4.85 7.6 4.21 7.21 3.82Z" id="c4kskyQEb"></path><path d="M3.21 3.82C2.82 3.43 2.18 3.43 1.79 3.82C1.4 4.21 1.4 4.85 1.79 5.24C2.18 5.63 2.82 5.63 3.21 5.24C3.6 4.85 3.6 4.21 3.21 3.82Z" id="b3o6eX98f9"></path><path d="M5.21 5.82C4.82 5.43 4.18 5.43 3.79 5.82C3.4 6.21 3.4 6.85 3.79 7.24C4.18 7.63 4.82 7.63 5.21 7.24C5.6 6.85 5.6 6.21 5.21 5.82Z" id="ctRHoo30d"></path></defs><g><g><use xlink:href="#ciuTReUiW" opacity="1" fill="#000000" fill-opacity="1"></use><g><use xlink:href="#ciuTReUiW" opacity="1" fill-opacity="0" stroke="#000000" stroke-width="1" stroke-opacity="0"></use></g></g><g><use xlink:href="#ajAszxags" opacity="1" fill="#2c2c2c" fill-opacity="1"></use><g><use xlink:href="#ajAszxags" opacity="1" fill-opacity="0" stroke="#000000" stroke-width="1" stroke-opacity="0"></use></g></g><g><use xlink:href="#c4kskyQEb" opacity="1" fill="#2c2c2c" fill-opacity="1"></use><g><use xlink:href="#c4kskyQEb" opacity="1" fill-opacity="0" stroke="#000000" stroke-width="1" stroke-opacity="0"></use></g></g><g><use xlink:href="#b3o6eX98f9" opacity="1" fill="#2c2c2c" fill-opacity="1"></use><g><use xlink:href="#b3o6eX98f9" opacity="1" fill-opacity="0" stroke="#000000" stroke-width="1" stroke-opacity="0"></use></g></g><g><use xlink:href="#ctRHoo30d" opacity="1" fill="#2c2c2c" fill-opacity="1"></use><g><use xlink:href="#ctRHoo30d" opacity="1" fill-opacity="0" stroke="#000000" stroke-width="1" stroke-opacity="0"></use></g></g></g></svg>