<svg id="Capa_1" fill="orange" enable-background="new 0 0 512 512" height="512" viewBox="0 0 512 512" width="512" xmlns="http://www.w3.org/2000/svg"><g><path d="m170.942 397.838h54.453c5.523 0 10-4.477 10-10s-4.477-10-10-10h-54.453c-5.523 0-10 4.477-10 10s4.477 10 10 10z"/><path d="m148.253 419.466c-5.523 0-10 4.477-10 10s4.477 10 10 10h99.831c5.523 0 10-4.477 10-10s-4.477-10-10-10z"/><path d="m512 156.84c0-69.242-56.372-125.575-125.663-125.575-68.121 0-123.754 54.446-125.614 122.078h-225.375c-19.491-.001-35.348 15.792-35.348 35.204v256.983c0 19.412 15.857 35.205 35.348 35.205h325.642c19.491 0 35.348-15.793 35.348-35.205v-163.509c64.633-5.109 115.662-59.302 115.662-125.181zm-492 31.707c0-8.384 6.885-15.205 15.348-15.205h226.407c4.057 30.752 19.292 58.031 41.48 77.618l-69.171 57.287c-20.799 17.226-50.991 17.226-71.791 0l-142.273-117.83zm356.337 93.474v135.98l-123.121-99.647 66.501-55.076c16.665 10.453 35.946 17.109 56.62 18.743zm-356.337-65.636 123.121 101.968-123.121 99.648zm356.337 229.145c0 8.384-6.885 15.205-15.348 15.205h-325.641c-8.463 0-15.348-6.821-15.348-15.205v-1.8l139.622-113.003c11.873 6.955 25.21 10.433 38.546 10.433 13.337 0 26.673-3.478 38.546-10.433l139.623 113.003zm10-183.114c-58.263 0-105.663-47.361-105.663-105.576 0-58.214 47.4-105.575 105.663-105.575s105.663 47.36 105.663 105.575-47.4 105.576-105.663 105.576z"/><path d="m391.89 200.2c-.54-.36-1.12-.67-1.73-.92-.6-.25-1.23-.44-1.87-.57-1.29-.26-2.62-.26-3.91 0-.63.13-1.26.32-1.87.57-.6.25-1.18.56-1.72.92-.55.36-1.06.78-1.52 1.24-1.87 1.86-2.93 4.44-2.93 7.07 0 .65.06 1.31.19 1.96.13.63.32 1.26.57 1.87.25.6.56 1.18.92 1.72.37.55.79 1.06 1.25 1.52s.97.88 1.52 1.25c.54.36 1.12.67 1.72.92.61.25 1.24.44 1.87.57.65.13 1.31.19 1.96.19s1.31-.06 1.95-.19 1.27-.32 1.87-.57c.61-.25 1.19-.56 1.73-.92.55-.37 1.06-.79 1.52-1.25s.88-.97 1.24-1.52c.36-.54.67-1.12.92-1.72.25-.61.44-1.24.57-1.87.13-.65.2-1.31.2-1.96 0-2.63-1.07-5.21-2.93-7.07-.46-.46-.97-.88-1.52-1.24z"/><path d="m386.337 188.955c5.523 0 10-4.477 10-10v-60.782c0-5.523-4.477-10-10-10s-10 4.477-10 10v60.782c0 5.523 4.477 10 10 10z"/></g></svg>